<svg width="24" height="24" version="1.1" xmlns="http://www.w3.org/2000/svg"><path d="m2 20v-16h20v16zm2-2h16v-12h-16zm0 0v-12zm12-1.75 2-2h-4zm-2-6.25h4l-2-2z"/><path d="m5.7178 17.019v-1.4659q0.21118-0.09936 0.44723-0.26088 0.23603-0.1615 0.4348-0.39132 0.19877-0.22983 0.32921-0.52177 0.13044-0.29193 0.13044-0.62735 0-0.08696-0.0068-0.18635-0.0068-0.09936-0.031105-0.1615h-1.3044v-1.5653h0.50934q-0.19877-0.36025-0.35405-0.79507-0.15529-0.4348-0.15529-1.0435 0-1.2671 0.87581-2.143 0.87582-0.87581 2.143-0.87581 1.0932 0 1.8759 0.59008 0.78265 0.5901 1.1429 1.5963l-1.4535 0.60873q-0.17392-0.57147-0.59008-0.90067-0.41617-0.32921-0.9752-0.32921-0.60872 0-1.0311 0.41617-0.42238 0.41618-0.42238 1.0373 0 0.55903 0.21118 0.96278 0.2112 0.40375 0.54662 0.87581h2.2237v1.5653h-1.6771q0.012283 0.06216 0.024794 0.1615 0.012283 0.09936 0.012283 0.18635 0 0.49691-0.14907 0.93172-0.14908 0.4348-0.43481 0.77022h1.938q0.37268 0 0.59008-0.23605 0.21741-0.23603 0.29194-0.68326l1.4411 0.54662q-0.18635 0.88202-0.84476 1.41-0.65841 0.52797-1.4783 0.52797z"/></svg>
